<svg xmlns="http://www.w3.org/2000/svg" viewBox="0 0 157 172.73"><defs><style>.cls-1{fill:#ffeedf;}</style></defs><g id="Layer_2" data-name="Layer 2"><g id="Layer_1-2" data-name="Layer 1"><path class="cls-1" d="M80.81,122.07l10.86.49q23.68,0,39.07-15.63,15.62-15.74,16.35-40.77Q148.44,27.6,110,14,95.57,8.91,72.51,8.91H62.26V172.73H0V0H46.75Q84.6,0,92.41,1.1T108.7,3.91A60.73,60.73,0,0,1,127,11.35,65.43,65.43,0,0,1,143.68,25,54.4,54.4,0,0,1,157,62.87q-.73,27.71-16.23,46.14Q125,127.57,97.29,132a100.13,100.13,0,0,1-12.7,1.1q-11,0-11-6a4.28,4.28,0,0,1,2-3.61A8.85,8.85,0,0,1,80.81,122.07Z"/></g></g></svg>