<svg xmlns="http://www.w3.org/2000/svg" viewBox="0 0 166.14 177.25"><defs><style>.cls-1{fill:#ffeedf;}</style></defs><g id="Layer_2" data-name="Layer 2"><g id="Layer_1-2" data-name="Layer 1"><path class="cls-1" d="M155.76,166l.25-8.43V138.31Q138.79,167,105.22,174.8a111,111,0,0,1-24.71,2.45,80.49,80.49,0,0,1-29.18-5.86,77.54,77.54,0,0,1-26.43-17Q0,130.26,0,90.82,0,53.1,26.37,27q27.46-27,69-27,21,0,38,7.81,10.38,4.65,14.65,8.61t4.27,6.35a6.12,6.12,0,0,1-1.46,4.09,5.09,5.09,0,0,1-4.09,1.7c-1.75,0-3.69-.93-5.8-2.8q-9.41-8.31-16.54-10.87t-11.41-3.66a74.31,74.31,0,0,0-7.7-1.59,92.93,92.93,0,0,0-12.45-.73,68.16,68.16,0,0,0-13.3,1.22v158c.89.08,1.79.12,2.68.12h2.44q36.25,0,58.72-27.46A81.73,81.73,0,0,0,156,118.53V106.81l-.61-11c0-4.32,1.7-6.47,5.12-6.47a5.08,5.08,0,0,1,4.15,1.77,6.55,6.55,0,0,1,1.47,4.33l-.73,10.13V151l.73,18.92a6.39,6.39,0,0,1-1.65,4.64,5.18,5.18,0,0,1-3.85,1.71q-5.37,0-5.37-5.62A35.2,35.2,0,0,1,155.76,166Z"/></g></g></svg>