<svg xmlns="http://www.w3.org/2000/svg" viewBox="0 0 230.27 184.94"><defs><style>.cls-1{fill:#ffeedf;}</style></defs><g id="Layer_2" data-name="Layer 2"><g id="Layer_1-2" data-name="Layer 1"><path class="cls-1" d="M1,180.3a5.87,5.87,0,0,1-1-4,22.05,22.05,0,0,1,2.32-7q1.71-3.17,2.5-4.76T6.51,161l4.64-10.74L61.32,0l54,104.25L167.64,0l62.63,180.54H164.71L134.44,87.28,87.57,184.94,38.25,97.05,21.16,150.39a106.27,106.27,0,0,0-5.74,15.14q-1.71,6.22-2.81,9.64-2.43,7.7-8,7.2A4.59,4.59,0,0,1,1,180.3Z"/></g></g></svg>