<svg xmlns="http://www.w3.org/2000/svg" viewBox="0 0 115.36 173.1"><defs><style>.cls-1{fill:#ffeedf;}</style></defs><g id="Layer_2" data-name="Layer 2"><g id="Layer_1-2" data-name="Layer 1"><path class="cls-1" d="M109.13,162.6q6.23,0,6.23,4.88,0,2.21-2.69,3.91t-9.28,1.71H0V.37H96.19l10-.37q9.15,0,9.16,5.37a5.77,5.77,0,0,1-1.53,3.85A4.52,4.52,0,0,1,110.35,11a33,33,0,0,1-6.71-.74A74.14,74.14,0,0,0,89.23,9.16h-27V46.39H84.47l15-.61a7.9,7.9,0,0,1,4.57,1.28,4.08,4.08,0,0,1,1.9,3.6q0,5.13-6.84,5.13l-5.25-.13q-4-.36-6.71-.36H62.26V164.18h27a76.73,76.73,0,0,0,12.82-.73A40.48,40.48,0,0,1,109.13,162.6Z"/></g></g></svg>