<svg xmlns="http://www.w3.org/2000/svg" viewBox="0 0 150.78 175.78"><defs><style>.cls-1{fill:#ffeedf;}</style></defs><g id="Layer_2" data-name="Layer 2"><g id="Layer_1-2" data-name="Layer 1"><path class="cls-1" d="M0,1.34H62.26V51.88L105.71,19A115.05,115.05,0,0,0,119,7.69q4.14-4.4,5.19-5.31A11.36,11.36,0,0,1,126.1,1a6.6,6.6,0,0,1,3.72-1,5,5,0,0,1,3.6,1.28,3.83,3.83,0,0,1,1.35,2.81,7.83,7.83,0,0,1-.37,2.56A8,8,0,0,1,132.93,9c-1.62,2-4.72,4.68-9.27,8.18L96.31,38,142.09,149.9c.89,2.12,1.75,4,2.56,5.62l2,4.39,2.19,4.15q.85,1.71,1.47,3.3a7,7,0,0,1,.49,3,6.27,6.27,0,0,1-.86,2.69c-1.14,1.78-2.52,2.68-4.15,2.68a6.46,6.46,0,0,1-5.13-1.95,18.81,18.81,0,0,1-3.29-6l-2.2-6.84c-.73-2.28-1.71-5-2.93-8.18L87.89,44.31,62.26,63.72V174.07H0Z"/></g></g></svg>