<svg xmlns="http://www.w3.org/2000/svg" viewBox="0 0 153.56 172.73"><defs><style>.cls-1{fill:#ffeedf;}</style></defs><g id="Layer_2" data-name="Layer 2"><g id="Layer_1-2" data-name="Layer 1"><path class="cls-1" d="M0,0H52.43Q71.9,0,76.05.12,94.11,1,101.56,4.33a42.81,42.81,0,0,1,11.84,7.51,30.38,30.38,0,0,1,9.4,22.46,32.75,32.75,0,0,1-9.15,23,29,29,0,0,1-6.47,5.25q19.89,3.66,32.59,16.72,13.8,14.18,13.79,34.55,0,20.76-12.81,35.77-18,20.75-55.42,22.7-9.52.49-18.8.49H0ZM80.08,60.06l6.22.73h2A22.87,22.87,0,0,0,105,53.71a25.2,25.2,0,0,0,7.57-18.55q0-13.42-11.6-20.63a28,28,0,0,0-11.66-4.34c-3.86-.44-6.89-.75-9.09-.91q-6.84-.49-17.94-.49V163.7H75.81q20.75,0,33.81-5.13,15.63-5.37,24.78-17.33,8.67-11.36,8.67-23.81t-3.67-21a39.29,39.29,0,0,0-10.62-14.53Q114.62,69.58,89.36,69.58l-8.43.73q-3.9,0-5.73-1.58a4.73,4.73,0,0,1-1.84-3.67Q73.36,60.07,80.08,60.06Z"/></g></g></svg>