<svg xmlns="http://www.w3.org/2000/svg" viewBox="0 0 155.88 177.25"><defs><style>.cls-1{fill:#ffeedf;}</style></defs><g id="Layer_2" data-name="Layer 2"><g id="Layer_1-2" data-name="Layer 1"><path class="cls-1" d="M150.88,146q5,0,5,5.61,0,4.65-7.08,9.28-13.19,8.67-22.21,11.35a125.31,125.31,0,0,1-35.65,5A99.1,99.1,0,0,1,55,170.59,85.4,85.4,0,0,1,25.51,152Q0,126.83,0,87A85.06,85.06,0,0,1,7.2,51.82,81.68,81.68,0,0,1,27.1,24.29Q54,0,94.6,0q22.83,0,40.17,7.81Q153.19,16,153.2,21.73a5.84,5.84,0,0,1-1.53,4,4.58,4.58,0,0,1-3.48,1.71A9.45,9.45,0,0,1,141.11,24a30.26,30.26,0,0,0-8.6-6.29,77.6,77.6,0,0,0-11.9-4.88,82.69,82.69,0,0,0-24-4,91.21,91.21,0,0,0-17.89,1.46v156.5a91.55,91.55,0,0,0,15.14,1.46,108.12,108.12,0,0,0,13.43-.85,84.11,84.11,0,0,0,13.43-2.81q14.76-4.4,22.21-12.94a31.63,31.63,0,0,1,4.28-4.39A5.77,5.77,0,0,1,150.88,146Z"/></g></g></svg>