<svg xmlns="http://www.w3.org/2000/svg" viewBox="0 0 122.92 177.25"><defs><style>.cls-1{fill:#ffeedf;}</style></defs><g id="Layer_2" data-name="Layer 2"><g id="Layer_1-2" data-name="Layer 1"><path class="cls-1" d="M10.5,166.14A47.29,47.29,0,0,1,3.11,161Q0,158.32,0,155.27c0-3.9,1.67-5.86,5-5.86q3.3,0,7.33,3.67a47.07,47.07,0,0,0,9,6.41,65.68,65.68,0,0,0,10.87,4.69,70.86,70.86,0,0,0,22.34,4q10.24,0,15.8-1.34a32.33,32.33,0,0,0,9.34-3.66q8.06-5,8.06-12.82,0-7.2-7-14.53A171,171,0,0,0,64.21,121L43.33,104.61Q12,80.44,6.35,60.42a56.91,56.91,0,0,1-2-15.5A39.76,39.76,0,0,1,8.24,28.08,41,41,0,0,1,19.65,13.55Q35.9,0,63.84,0A73.31,73.31,0,0,1,89.48,4.21q11.35,4.22,15.5,7.51t4.15,6c0,3.74-1.55,5.62-4.64,5.62q-2.68,0-5.74-2.69A36.27,36.27,0,0,0,92,15.93a53.64,53.64,0,0,0-8.48-3.6A63.45,63.45,0,0,0,63.35,8.91q-18.18,0-18.18,12a14.86,14.86,0,0,0,3.29,9.28q5.86,7.45,22.89,21.3A358.93,358.93,0,0,1,98.69,75.68a120.63,120.63,0,0,1,15.69,18.68q8.55,13.06,8.54,27.16T118,145.45a50.3,50.3,0,0,1-13.85,16.9q-18.81,14.9-46.63,14.9T10.5,166.14Z"/></g></g></svg>