<svg xmlns="http://www.w3.org/2000/svg" viewBox="0 0 156.01 176.39"><defs><style>.cls-1{fill:#ffeedf;}</style></defs><g id="Layer_2" data-name="Layer 2"><g id="Layer_1-2" data-name="Layer 1"><path class="cls-1" d="M156,6.47l-.74,15.14v73q0,36.14-20.75,58.72-21.24,23.07-56.4,23.07-37.59,0-58.59-23.56Q0,131.23,0,97.41V1.34H62.38V166a147.59,147.59,0,0,0,20.69,1.34,63.24,63.24,0,0,0,23-4.52,53.51,53.51,0,0,0,20.44-14.16q19-20.75,19.29-60.67V21.85a80.11,80.11,0,0,0-.55-8.67c-.36-3.33-.55-5.61-.55-6.83q0-6.34,6-6.35C154.21,0,156,2.16,156,6.47Z"/></g></g></svg>