<svg xmlns="http://www.w3.org/2000/svg" viewBox="0 0 154.91 175.05"><defs><style>.cls-1{fill:#ffeedf;}</style></defs><g id="Layer_2" data-name="Layer 2"><g id="Layer_1-2" data-name="Layer 1"><path class="cls-1" d="M82.28,113.53l10,.73a49.67,49.67,0,0,0,36.49-15q15-15,15-37.35,0-29.29-25.76-43.46a73.5,73.5,0,0,0-30.27-9q-6.84-.62-12.7-.61h-8.3c-1.71,0-3.21,0-4.51.12V172.73H0V0H46.26Q64,0,69.34.12c3.58.08,6.77.19,9.58.31s5.43.26,7.87.42q5.37.5,15.2,2.32a67.84,67.84,0,0,1,19.47,7,61.56,61.56,0,0,1,16.6,12.7,54.31,54.31,0,0,1,15,38.33A59.18,59.18,0,0,1,139.16,100q-14.28,17.2-38.09,22.21,11.36,35.16,28.93,42a29.53,29.53,0,0,0,10.75,2.08l9.64-2.32q4.52,0,4.52,4.64,0,6.46-15.14,6.47a35.61,35.61,0,0,1-20.14-6.1q-14.28-8.55-24.29-33.21l-3.54-8.66a6.48,6.48,0,0,0-1.53-2.57A4.14,4.14,0,0,0,88,124a15,15,0,0,0-2.87.25l-2.93.12q-4.87,0-6.65-1.83a5.45,5.45,0,0,1-1.77-3.79Q73.73,113.54,82.28,113.53Z"/></g></g></svg>