<svg xmlns="http://www.w3.org/2000/svg" viewBox="0 0 144.17 187.26"><defs><style>.cls-1{fill:#ffeedf;}</style></defs><g id="Layer_2" data-name="Layer 2"><g id="Layer_1-2" data-name="Layer 1"><path class="cls-1" d="M11,163.09l.36,12.2a6.62,6.62,0,0,1-1.71,4.89,5.61,5.61,0,0,1-4.09,1.7,5.39,5.39,0,0,1-4-1.58A4.84,4.84,0,0,1,0,176.82a18.89,18.89,0,0,1,.31-3.54q.3-1.65.54-3.72.61-3.54.61-17.7V0l132.7,105.22V32.47a99.79,99.79,0,0,0-.49-11.84q-.61-5.73-.61-8.06,0-6.1,5.25-6.1a6.41,6.41,0,0,1,4,1.46,5.11,5.11,0,0,1,1.9,4.28v4.27l-.49,17.7V187.26L11,83.13Z"/></g></g></svg>